<?xml version="1.0" encoding="UTF-8" standalone="no"?>
<!-- Created with Inkscape (http://www.inkscape.org/) -->

<svg
   version="1.1"
   id="svg1"
   width="236.82005"
   height="295.22198"
   viewBox="0 0 236.82005 295.22198"
   sodipodi:docname="athanor.png"
   inkscape:version="1.4.4 (dcaf3e7d9e, 2026-05-05)"
   inkscape:dataloss="true"
   xmlns:inkscape="http://www.inkscape.org/namespaces/inkscape"
   xmlns:sodipodi="http://sodipodi.sourceforge.net/DTD/sodipodi-0.dtd"
   xmlns="http://www.w3.org/2000/svg"
   xmlns:svg="http://www.w3.org/2000/svg">
  <defs
     id="defs1" />
  <sodipodi:namedview
     id="namedview1"
     pagecolor="#ffffff"
     bordercolor="#000000"
     borderopacity="0.25"
     inkscape:showpageshadow="2"
     inkscape:pageopacity="0.0"
     inkscape:pagecheckerboard="0"
     inkscape:deskcolor="#d1d1d1"
     showgrid="false"
     inkscape:zoom="0.71807373"
     inkscape:cx="483.23729"
     inkscape:cy="194.26975"
     inkscape:window-width="1896"
     inkscape:window-height="1030"
     inkscape:window-x="0"
     inkscape:window-y="0"
     inkscape:window-maximized="1"
     inkscape:current-layer="g1">
    <inkscape:page
       x="0"
       y="0"
       width="236.82005"
       height="295.22198"
       id="page2"
       margin="0"
       bleed="0" />
  </sodipodi:namedview>
  <g
     inkscape:groupmode="layer"
     inkscape:label="Image"
     id="g1"
     transform="translate(-19.295578,-27.654755)">
    <path
       style="fill:#000000"
       d="m 121.5639,317.68038 c -8.77154,-2.858 -27.423262,-8.91223 -41.448262,-13.45385 -39.90007,-12.92056 -43.00486,-14.06986 -42.96222,-15.90335 0.0208,-0.89355 3.95829,-6.85263 8.75,-13.24239 34.31496,-45.75906 45.86028,-60.85108 46.87091,-61.26959 0.63728,-0.26389 3.44978,0.12457 6.25,0.86325 2.800222,0.73869 5.091312,1.10152 5.091312,0.80629 0,-0.29522 -1.35835,-3.29597 -3.01855,-6.66832 -3.901692,-7.92545 -4.661002,-14.41274 -2.619612,-22.38106 2.933032,-11.44872 12.134112,-26.22968 16.329142,-26.23174 1.20504,-5.9e-4 2.50693,0.51013 2.89309,1.13495 0.95592,1.5467 3.80979,-2.12957 7.48039,-9.63603 2.51706,-5.14743 2.93407,-7.16271 2.93475,-14.18261 7e-4,-7.23407 0.22684,-8.25436 1.95081,-8.80153 4.77261,-1.51476 15.29529,8.15264 20.63023,18.95342 1.98112,4.01085 4.03311,10.25215 4.77735,14.53072 l 1.30459,7.5 1.16333,-4 c 0.63983,-2.2 1.16584,-4.51436 1.1689,-5.14301 0.003,-0.62866 0.70713,-1.41222 1.56458,-1.74126 3.77575,-1.44889 14.16571,15.08674 16.53854,26.32109 1.64555,7.79099 0.49966,16.43079 -3.09395,23.3278 -1.65197,3.17054 -3.00359,6.18378 -3.00359,6.6961 0,0.51231 2.25575,0.26159 5.01278,-0.55716 2.75845,-0.81917 5.63914,-1.13222 6.40556,-0.6961 1.18749,0.67573 7.30994,8.42598 12.58166,15.9268 2.47364,3.5196 23.73862,31.60655 26.66564,35.22017 1.49439,1.84494 4.51179,5.89494 6.70534,9 2.19355,3.10507 5.25744,7.12373 6.80865,8.93037 4.40101,5.12571 3.81616,6.6902 -3.42963,9.17429 -6.23034,2.13596 -56.5158,18.5368 -81.30174,26.51695 l -13.05173,4.20217 z m 12.55174,-45.34933 v -41.86749 l -4.75,-1.0038 c -2.6125,-0.55209 -11.20702,-2.69447 -19.09894,-4.76084 l -14.348942,-3.75704 -2.27572,2.37833 c -4.4377,4.63779 -45.8183,60.31016 -45.92152,61.78158 -0.0777,1.10729 10.79156,5.05667 41.89512,15.22275 23.100002,7.55016 42.562502,13.76051 43.250002,13.80078 0.98126,0.0575 1.25,-8.92789 1.25,-41.79427 z m 34.87785,33.28625 c 14.64218,-4.71969 34.13618,-11.04852 43.31999,-14.06408 l 16.69785,-5.48282 -5.01378,-6.68593 c -2.75757,-3.67726 -7.7966,-10.46127 -11.19784,-15.07558 -3.40124,-4.61431 -8.20907,-10.99637 -10.68407,-14.18237 -2.475,-3.18599 -8.325,-10.99771 -13,-17.35936 -9.86062,-13.41815 -6.95505,-12.68006 -27.62037,-7.01633 -6.95906,1.90727 -14.39137,3.74577 -16.51624,4.08555 l -3.86339,0.61778 v 41.87219 c 0,23.0297 0.28253,41.87219 0.62785,41.87219 0.34532,0 12.60782,-3.86156 27.25,-8.58124 z m -26.64528,-82.46653 c 2.82982,-0.7859 4.34143,-2.07555 6.25,-5.33228 2.37595,-4.05425 3.40887,-9.65775 1.76743,-9.58815 -0.4125,0.0175 -1.62351,0.6925 -2.69113,1.5 -1.06762,0.80751 -2.7168,1.4682 -3.66483,1.4682 -2.40926,0 -8.41017,-8.53313 -10.11262,-14.37986 l -1.42091,-4.87987 -3.03829,4.58697 c -6.29875,9.50939 -6.56787,18.15439 -0.74635,23.9759 3.54058,3.54058 7.60667,4.32931 13.6567,2.64909 z m -21.86906,-5.70223 c -0.46931,-1.5125 -0.83063,-5.225 -0.80292,-8.25 0.064,-6.98264 4.47501,-15.64032 11.48813,-22.54799 6.00401,-5.91373 7.21566,-5.2835 7.35431,3.82526 0.0789,5.18507 0.61158,7.14862 2.86116,10.54697 1.5203,2.29667 3.19625,4.17576 3.72432,4.17576 0.52807,0 1.65824,-1.35 2.51149,-3 2.22218,-4.29722 4.92383,-3.89725 6.89142,1.02024 1.84692,4.61591 2.06279,9.65491 0.5806,13.55335 -1.34709,3.54312 -0.882,3.83346 3.32495,2.07569 4.79317,-2.00271 11.32647,-10.54615 13.32684,-17.42716 2.84104,-9.77284 -0.0256,-23.39143 -7.02815,-33.389 -1.46113,-2.08606 -1.52785,-2.04306 -3.16022,2.03663 -0.91717,2.29223 -2.80104,5.05927 -4.18637,6.14897 -2.48385,1.9538 -6.23716,2.69184 -6.26164,1.23128 -0.18587,-11.08969 -1.06579,-19.66588 -2.38545,-23.25 -2.21291,-6.01011 -7.97701,-14.28594 -12.18632,-17.49653 l -3.41566,-2.60525 -0.0326,5.30089 c -0.0447,7.25668 -2.63436,14.15457 -8.89309,23.68778 -2.91051,4.43324 -5.86767,9.73544 -6.57147,11.78268 l -1.27965,3.72225 -1.18247,-5.69591 c -0.65041,-3.13275 -1.3812,-5.69591 -1.62404,-5.69591 -1.18253,0 -7.54281,11.43749 -9.36005,16.83189 -2.4426,7.25076 -2.58487,12.02634 -0.56126,18.84056 1.70836,5.75269 7.77483,13.22595 12.71113,15.65881 4.55045,2.24269 5.14076,2.08915 4.15701,-1.08126 z M 82.303378,141.60036 c -8.81936,-6.55378 -8.59519,-8.72351 2.24628,-21.74169 13.99171,-16.80092 38.927732,-26.295497 61.803202,-23.532057 18.70129,2.25919 35.68183,12.116447 47.25355,27.430827 7.76917,10.28196 7.71003,11.81676 -0.69085,17.92963 -9.28386,6.75537 -11.5664,6.2923 -18.49102,-3.7514 -4.44299,-6.44426 -14.29133,-13.35111 -22.8089,-15.99636 -18.61452,-5.781 -39.63218,0.82431 -50.69252,15.93137 -7.480562,10.21751 -9.377732,10.59752 -18.619742,3.72968 z m 14.00673,-6.10633 c 11.236882,-14.7839 30.380462,-22.76264 48.468802,-20.20102 14.34082,2.03091 29.2585,11.50018 35.94237,22.81509 1.00407,1.69974 2.44249,3.09044 3.19649,3.09044 1.93261,0 10.19787,-6.09446 10.19787,-7.51948 0,-3.46048 -12.35434,-16.94098 -20.33226,-22.18566 -18.30843,-12.035927 -40.69193,-14.320657 -60.36183,-6.16127 -12.5996,5.22651 -21.745482,12.514 -29.832742,23.77087 l -3.57388,4.97458 5.28701,3.56048 c 2.90785,1.95826 5.5987,3.56048 5.97966,3.56048 0.38096,0 2.64379,-2.56703 5.02851,-5.70451 z M 55.012938,122.4339 c -8.53537,-6.35705 -8.78777,-8.44667 -2.08646,-17.27342 16.06061,-21.15449 41.22561,-36.939122 66.189162,-41.516838 9.81369,-1.799596 27.93356,-1.811245 37.16203,-0.02389 15.74103,3.048693 32.41468,10.497095 44.626,19.935193 11.50596,8.892928 26.22636,26.187435 26.19666,30.777575 -0.0212,3.27495 -0.66317,4.03279 -7.40047,8.73616 -8.49635,5.93137 -10.28245,5.65423 -16.88612,-2.62014 -11.81195,-14.80032 -24.79003,-24.165737 -40.9163,-29.526557 -7.93616,-2.63821 -11.14508,-3.146715 -22.13415,-3.507545 -12.99739,-0.426767 -16.49804,0.0938 -29.47543,4.382845 -13.399442,4.42857 -27.490732,15.291277 -39.112712,30.151257 -5.34306,6.83169 -7.55217,6.89803 -16.16221,0.48536 z m 14.45928,-6.04898 c 9.65082,-12.54196 23.30626,-22.953637 37.143422,-28.320244 35.35586,-13.712432 74.52179,-2.857755 98.43736,27.281504 2.99055,3.7688 5.91555,6.8412 6.5,6.82757 1.81501,-0.0423 10.56264,-6.92174 10.56264,-8.30678 0,-1.99454 -12.38116,-16.531277 -18.80938,-22.084117 -12.19955,-10.538254 -25.95521,-17.840278 -41.69062,-22.13096 -3.63554,-0.991328 -11.71411,-1.831794 -20.5,-2.132748 -12.35158,-0.423095 -15.884,-0.183961 -23.84085,1.613951 -17.590482,3.974709 -31.910672,11.053425 -44.796732,22.143797 -6.1018,5.2515 -19.36242,20.723217 -19.36242,22.590937 0,1.44136 8.78514,8.26625 10.69155,8.30592 0.65536,0.0136 3.20462,-2.59134 5.66503,-5.78883 z m -40.37874,-12.03289 c -1.91281,-1.56558 -4.39565,-3.33074 -5.51742,-3.92257 -1.12177,-0.591837 -2.66418,-2.243117 -3.42757,-3.669527 -1.21504,-2.27034 -1.16829,-3.05415 0.37522,-6.29093 2.4934,-5.228723 8.44957,-12.346934 19.1073,-22.835117 20.39928,-20.074776 42.54659,-31.854625 70.651552,-37.57859 15.86197,-3.23051 40.54147,-3.196273 55.83308,0.07745 12.23974,2.620363 29.71057,9.175495 40.15925,15.06793 10.72179,6.046456 24.34347,16.723328 33.42369,26.197985 8.37766,8.741581 16.41706,20.047232 16.41706,23.086992 0,3.29352 -12.11263,12.712887 -16.34786,12.712887 -3.07924,0 -4.08341,-0.94337 -12.15214,-11.416427 -16.13686,-20.945338 -42.92701,-36.866439 -69.87953,-41.528658 -15.02574,-2.599138 -26.23593,-2.599957 -40.69558,-0.003 -28.633202,5.142579 -55.726312,22.172221 -72.542192,45.597118 -6.08086,8.470757 -9.38014,9.435487 -15.40486,4.504437 z m 11.30051,-7.425057 c 6.71535,-9.292597 17.78612,-20.033126 29.85134,-28.96087 9.68121,-7.163671 29.891372,-15.422895 46.370312,-18.950014 3.47052,-0.742823 12.53448,-1.271038 21.5,-1.252943 13.34469,0.02693 16.96844,0.397973 26.06037,2.668352 29.46944,7.358925 52.90525,22.756173 70.63363,46.406065 2.00413,2.67354 3.79017,5.045787 3.96896,5.271667 0.49787,0.62897 6.53191,-2.821387 9.70055,-5.546947 1.55377,-1.3365 2.60421,-3.00547 2.33431,-3.70883 -1.10983,-2.89217 -13.19937,-16.918918 -20.50589,-23.791717 -18.53204,-17.431966 -41.86776,-29.324947 -68.69193,-35.00863 -8.05454,-1.70665 -40.12022,-1.721685 -48,-0.02251 -28.264242,6.094839 -51.248292,18.113586 -70.727242,36.98446 -7.48421,7.250573 -18.78778,20.986777 -18.75826,22.795207 0.0171,1.0445 10.02366,8.298657 11.4855,8.326257 0.55,0.0104 2.70026,-2.333907 4.77835,-5.209547 z"
       id="path1" />
    <path
       style="fill:#d4aa00;stroke-width:3.7218"
       d="m 60.560727,120.1886 c -1.354,-0.89185 -3.544521,-2.60559 -4.867824,-3.80832 -2.405336,-2.18618 -2.405792,-2.1872 -1.635484,-3.64645 2.219927,-4.20535 14.987896,-18.233332 21.259526,-23.357529 11.420591,-9.331125 25.565215,-16.065847 42.161555,-20.074504 5.46343,-1.31963 5.97183,-1.35419 19.15241,-1.301941 18.50312,0.07335 24.12484,0.958372 36.08051,5.680132 13.63491,5.384958 25.17817,12.953804 34.90252,22.885367 7.15113,7.303525 14.19588,15.908835 14.19588,17.340605 0,1.33747 -9.32498,8.25982 -10.51269,7.80405 -0.38387,-0.1473 -2.90817,-2.88797 -5.60958,-6.09037 C 197.61436,106.0492 190.38871,99.616618 181.82094,94.372565 160.65065,81.414916 134.17343,78.488272 110.28945,86.465872 96.79139,90.974424 83.082475,100.24052 73.222055,111.52036 c -2.012148,2.3018 -4.867009,5.56987 -6.344137,7.26237 -1.477128,1.6925 -2.948866,3.06605 -3.27053,3.05234 -0.321663,-0.0137 -1.692661,-0.75463 -3.046661,-1.64647 z"
       id="path2" />
    <path
       style="fill:#d4aa00;stroke-width:3.7218"
       d="m 31.183249,99.211642 c -1.985987,-1.353798 -4.37295,-3.122102 -5.304362,-3.929564 l -1.693477,-1.46811 2.286879,-3.3328 C 29.758047,85.692641 37.704323,76.61713 43.63408,70.88054 62.217862,52.90214 84.008758,41.347689 112.01273,34.623301 c 4.49208,-1.078649 5.50677,-1.12303 25.60291,-1.119813 l 20.92545,0.0033 5.416,1.305128 c 33.22063,8.005389 57.85296,23.143134 79.55755,48.891911 4.80516,5.700513 6.85227,8.560422 6.85227,9.572982 0,0.446013 -0.83086,1.609586 -1.84636,2.585722 -2.25338,2.16603 -7.8617,5.810909 -8.93889,5.809439 -0.43191,-6e-4 -2.66797,-2.48789 -4.96901,-5.527325 C 229.68561,89.636587 219.7486,79.226574 214.18061,74.740092 198.78336,62.333534 180.17891,53.590868 159.772,49.172207 148.52542,46.737011 123.04819,47.057833 112.33851,49.769513 97.886115,53.428844 81.187613,60.306996 72.131273,66.330966 63.097179,72.34014 48.228476,86.193351 41.861042,94.533818 c -4.189171,5.487242 -5.684418,7.139272 -6.461729,7.139272 -0.332848,0 -2.230078,-1.10765 -4.216064,-2.461448 z"
       id="path3" />
    <path
       style="fill:#d4aa00;stroke-width:3.7218"
       d="m 182.59256,139.95436 c -0.5415,-0.6093 -1.99595,-2.55357 -3.23209,-4.3206 -9.90438,-14.15794 -29.86584,-22.90665 -47.16112,-20.66979 -14.92778,1.93066 -26.24734,8.33528 -36.270586,20.52192 -2.299782,2.79616 -4.467668,5.08393 -4.817524,5.08393 -1.189759,0 -10.616053,-6.48321 -10.277305,-7.06852 1.549273,-2.67692 8.07142,-10.68981 11.355959,-13.95155 12.235326,-12.15039 31.419066,-19.620792 47.995606,-18.69012 6.17776,0.34684 13.67407,1.78241 18.71682,3.58432 4.87515,1.74203 12.60194,5.74679 16.20395,8.39844 6.35137,4.67561 15.99908,14.91629 17.99425,19.1002 l 0.88291,1.85148 -2.43404,2.20368 c -2.12235,1.92149 -6.87106,5.04648 -7.68884,5.05981 -0.15589,0.003 -0.72649,-0.4939 -1.26799,-1.1032 z"
       id="path4" />
    <path
       style="fill:#d4aa00;stroke-width:3.7218"
       d="m 117.92109,219.0114 c -6.20747,-2.69668 -12.56028,-10.66444 -14.52883,-18.22221 -1.03741,-3.98289 -0.92876,-9.55324 0.27205,-13.94709 1.58425,-5.7969 8.73499,-19.62008 9.8068,-18.95766 0.21599,0.13348 0.89975,2.6903 1.51949,5.68182 0.61973,2.99152 1.27663,5.26593 1.45978,5.05425 0.18314,-0.21168 0.8169,-1.71442 1.40835,-3.33943 0.59145,-1.62501 2.85163,-5.83472 5.02262,-9.35491 5.04827,-8.18563 8.57967,-15.38827 9.5352,-19.44799 0.41429,-1.7602 0.75653,-5.15413 0.76054,-7.54207 l 0.007,-4.34171 1.60019,1.12774 c 4.26101,3.00298 10.24237,10.7985 12.90493,16.81901 1.593,3.60205 2.15041,6.96253 2.8204,17.00317 0.43214,6.47619 0.73686,8.60547 1.26027,8.80632 1.35734,0.52086 4.80504,-0.96552 6.59653,-2.8439 0.98726,-1.03516 2.50689,-3.38877 3.37694,-5.23023 l 1.58192,-3.34812 1.20248,1.46853 c 0.66137,0.80769 2.17652,3.46261 3.367,5.89981 5.03762,10.31322 5.9993,21.3148 2.58233,29.54182 -2.68318,6.46026 -9.07302,13.7082 -13.37865,15.17528 -2.66214,0.90708 -2.70238,0.80978 -1.44854,-3.50325 0.99162,-3.41108 0.69143,-8.06037 -0.7732,-11.97495 -2.03757,-5.44589 -4.50184,-5.8483 -7.65559,-1.25012 l -1.9741,2.87823 -1.8347,-2.06678 c -3.31559,-3.73499 -4.26951,-6.39709 -4.72781,-13.19391 -0.60616,-8.98961 -1.58371,-9.41613 -7.71632,-3.36673 -5.78409,5.70559 -9.72005,12.47963 -11.16448,19.21476 -0.51026,2.37926 -0.32855,8.14074 0.38612,12.24292 0.3553,2.03939 0.22156,2.09936 -2.26899,1.0174 z"
       id="path5" />
    <path
       style="fill:#ffc12a;fill-opacity:1;stroke-width:3.7218"
       d="m 132.41844,222.64314 c -5.13194,-2.4569 -7.9605,-7.64259 -7.45534,-13.66813 0.33152,-3.9543 1.62716,-7.21838 4.93729,-12.43836 l 2.44478,-3.85534 1.07514,3.36298 c 2.46509,7.71062 7.91076,15.42589 10.88807,15.42589 0.45046,0 2.02235,-0.68847 3.49308,-1.52994 1.47073,-0.84146 2.79838,-1.40561 2.95034,-1.25365 0.55414,0.55414 -0.40289,4.64738 -1.75513,7.50669 -2.38013,5.03278 -5.17258,6.88642 -11.13485,7.39137 -2.4446,0.20703 -3.38356,0.0446 -5.44338,-0.94151 z"
       id="path6" />
    <path
       style="fill:#ffc12a;fill-opacity:1;stroke-width:3.7218"
       d="m 116.93636,218.26947 c -1.0832,-0.56926 -3.52943,-2.60893 -5.43607,-4.5326 -8.08095,-8.15314 -10.54759,-18.53055 -6.85849,-28.85432 2.29055,-6.40999 8.0655,-17.05134 8.7889,-16.19508 0.0898,0.10629 0.69374,2.36224 1.3421,5.01321 0.64836,2.65098 1.39909,4.75584 1.66829,4.67746 0.2692,-0.0784 1.17112,-1.69345 2.00428,-3.58905 0.83316,-1.8956 3.03688,-5.99453 4.89715,-9.10873 7.61623,-12.74997 9.51471,-17.57396 10.00658,-25.42644 l 0.32763,-5.23052 2.67529,2.40394 c 3.33766,2.99911 7.95826,9.17723 10.21463,13.65778 2.1079,4.18574 2.87476,7.83293 3.58644,17.05706 0.78967,10.23505 0.8155,10.33964 2.55405,10.33964 3.46991,0 6.98835,-3.16503 9.42646,-8.47962 0.59355,-1.29381 1.19984,-2.35238 1.34731,-2.35238 0.44522,0 3.29035,4.94875 4.92727,8.57038 3.73738,8.26881 4.75803,18.26023 2.57447,25.20208 -1.38373,4.39908 -5.00721,9.94872 -8.90266,13.63507 -2.64247,2.50063 -6.24136,4.70649 -6.78757,4.16029 -0.10342,-0.10343 0.18448,-1.90471 0.63979,-4.00283 0.70801,-3.26261 0.74119,-4.32004 0.22924,-7.30553 -1.14376,-6.6699 -3.46394,-9.92197 -6.19199,-8.67898 -0.71893,0.32756 -2.09348,1.6901 -3.05457,3.02787 l -1.74743,2.4323 -1.44529,-1.65687 c -1.74541,-2.00093 -3.65661,-5.54671 -4.07772,-7.56524 -0.16948,-0.8124 -0.52895,-3.65157 -0.79882,-6.30928 -0.26987,-2.6577 -0.72021,-5.26107 -1.00075,-5.78527 -1.01549,-1.89747 -2.75323,-1.16713 -6.81151,2.86274 -8.52247,8.46279 -12.36743,17.11307 -11.64909,26.2078 0.18134,2.29599 0.45252,4.78858 0.60263,5.53909 0.3341,1.67051 -0.30252,1.7302 -3.05055,0.28603 z"
       id="path7" />
    <path
       style="fill:#ffc12a;fill-opacity:1;stroke-width:3.7218"
       d="m 180.33875,136.50782 c -15.74944,-21.16164 -42.83669,-27.98017 -65.81002,-16.56601 -7.0603,3.50786 -12.65402,8.17133 -20.313501,16.93528 l -3.012193,3.44655 -2.301004,-1.23091 c -1.265552,-0.677 -3.522661,-2.1879 -5.015798,-3.35756 l -2.714795,-2.12665 0.851022,-1.3199 c 1.893174,-2.93622 9.208393,-11.46255 12.117665,-14.12386 10.787084,-9.86771 26.033274,-16.20103 40.521324,-16.83272 14.12593,-0.61589 27.22824,3.0955 39.18908,11.10079 6.00586,4.01967 17.32935,15.85574 19.32694,20.20182 0.47825,1.04049 0.34561,1.33838 -1.16976,2.62715 -2.64623,2.25053 -7.24372,5.30802 -7.98157,5.30802 -0.36535,0 -2.02467,-1.8279 -3.68739,-4.062 z"
       id="path8" />
    <path
       style="fill:#ffc12a;fill-opacity:1;stroke-width:3.7218"
       d="m 60.481428,119.75005 c -1.262215,-0.87053 -3.32158,-2.52049 -4.576367,-3.66658 -1.938435,-1.77051 -2.204073,-2.22834 -1.76688,-3.04525 1.8258,-3.41153 12.52415,-15.299654 19.566608,-21.742616 9.925672,-9.080741 24.338637,-16.410032 41.754481,-21.233021 5.09887,-1.412034 6.06057,-1.51388 16.42372,-1.739306 12.31984,-0.267988 23.00967,0.40636 28.92577,1.824728 12.4997,2.996769 27.27846,10.370706 38.31349,19.116722 6.48977,5.143584 19.74951,19.462123 21.95475,23.707863 0.58738,1.13088 0.47669,1.33594 -1.77625,3.29042 -1.32147,1.14641 -3.59403,2.80641 -5.05012,3.68889 l -2.64744,1.60452 -2.52832,-2.72416 C 197.74323,106.62292 194.97307,103.79393 191.86892,101.26089 181.84038,93.077413 171.01315,87.631841 158.47472,84.465217 150.47721,82.44542 144.04359,81.81344 134.461,82.106329 c -16.23104,0.496096 -30.05884,4.824829 -43.340035,13.567409 -7.781688,5.122432 -12.38373,9.342362 -23.084985,21.168222 -2.252411,2.48912 -4.357266,4.51784 -4.677455,4.50827 -0.320188,-0.01 -1.614882,-0.72966 -2.877097,-1.60018 z"
       id="path9" />
    <path
       style="fill:#ffc12a;fill-opacity:1;stroke-width:3.7218"
       d="m 30.983489,98.675094 c -2.011519,-1.378102 -4.255833,-3.070961 -4.987365,-3.76191 l -1.330057,-1.25627 1.534776,-2.269546 C 30.084382,85.644587 40.012878,74.54114 46.653217,68.514635 63.84423,52.912763 82.706835,42.873866 108.07382,35.825877 l 6.40073,-1.778384 21.92243,-0.195546 21.92243,-0.195545 6.14229,1.546714 c 34.28571,8.633611 59.29633,24.507219 81.06971,51.452884 4.20929,5.209202 4.79251,6.329467 3.98267,7.649942 -0.72026,1.174411 -4.61171,4.205086 -7.60145,5.920038 -2.05047,1.17619 -2.05518,1.17649 -3.14259,0.20471 -0.59898,-0.535278 -2.87515,-3.188872 -5.05815,-5.896872 C 227.98454,87.429095 216.21236,75.799636 210.4116,71.516019 193.72259,59.191876 171.52078,50.062187 153.15851,47.97277 145.93377,47.150676 122.38549,47.624358 116.444,48.711296 105.95916,50.629394 87.915816,57.153112 77.793455,62.685716 67.861352,68.114329 54.075526,79.830209 44.81438,90.712973 c -2.479677,2.913862 -5.504114,6.461145 -6.72097,7.882845 -1.216856,1.421702 -2.491499,2.584912 -2.832539,2.584912 -0.341041,0 -2.265862,-1.12754 -4.277382,-2.505636 z"
       id="path10" />
    <path
       style="fill:#ff932a;fill-opacity:1;stroke-width:3.7218"
       d="m 141.63387,305.39702 c -0.17737,-4.67596 -0.32317,-23.39186 -0.324,-41.59089 l -0.002,-33.08915 1.84637,-0.3083 c 3.25251,-0.54311 13.39684,-3.04316 22.76867,-5.61131 9.57892,-2.6249 12.43603,-2.96568 14.76531,-1.76117 0.78069,0.40371 2.92653,2.78552 4.76852,5.29291 1.842,2.50739 8.01717,10.76267 13.72261,18.34507 5.70544,7.5824 14.62549,19.49742 19.82235,26.47782 9.44719,12.68941 9.44861,12.69172 8.15899,13.18203 -2.93122,1.11445 -73.61367,23.99444 -84.17482,27.24749 -1.00937,0.31091 -1.03645,0.14701 -1.35249,-8.1845 z"
       id="path11" />
    <path
       style="fill:#ffc12a;fill-opacity:1;stroke-width:3.7218"
       d="m 116.93636,308.89755 c -27.126799,-8.72932 -61.947031,-20.45478 -65.416232,-22.02844 -2.460453,-1.11607 -3.301939,-1.73177 -3.096947,-2.26597 1.020753,-2.66004 40.489051,-55.56253 45.545049,-61.04764 l 2.037171,-2.21007 19.008169,4.78656 19.00816,4.78656 -0.23441,40.37381 c -0.12892,22.2056 -0.39856,40.87234 -0.59919,41.48164 -0.20064,0.6093 -0.50513,1.09149 -0.67665,1.07152 -0.17151,-0.02 -7.18032,-2.24655 -15.57512,-4.94797 z"
       id="path12" />
    <path
       style="fill:#ff932a;fill-opacity:1;stroke-width:3.7218"
       d="M 125.79891,311.52789 C 98.355633,302.52825 55.343298,288.12269 53.175273,287.205 c -5.049934,-2.13754 -4.906383,-1.86606 -2.726746,-5.1567 6.309646,-9.52577 39.260635,-53.32603 44.380546,-58.99304 l 1.321363,-1.46256 17.286054,4.38129 c 9.50733,2.40971 17.99511,4.57078 18.86173,4.80239 l 1.57567,0.4211 -0.23467,32.60271 c -0.30567,42.46383 -0.53847,49.60345 -1.6156,49.54653 -0.44479,-0.0235 -3.24591,-0.84198 -6.22471,-1.81883 z"
       id="path13" />
    <path
       style="fill:#803300;fill-opacity:1;stroke-width:3.7218"
       d="M 124.06618,318.20365 C 46.962705,293.16068 40.335736,290.92657 38.324669,289.29811 l -1.069418,-0.86596 1.906438,-3.15389 c 2.616523,-4.32862 45.59509,-61.56314 52.296762,-69.64356 l 1.602082,-1.93168 5.459865,1.13551 c 3.002922,0.62453 5.583952,1.01142 5.735612,0.85977 0.15166,-0.15167 -0.84499,-2.66508 -2.21477,-5.58537 -1.36978,-2.92029 -2.885309,-6.6345 -3.36784,-8.25382 -1.139389,-3.82364 -1.150669,-10.73312 -0.02448,-14.98932 2.07615,-7.84635 7.13026,-17.76767 11.56715,-22.70656 3.41095,-3.79686 4.11417,-4.16579 6.07551,-3.18734 0.84404,0.42106 1.80997,0.76556 2.14652,0.76556 1.20263,0 3.83243,-3.70724 6.43549,-9.07212 2.95235,-6.08475 3.6072,-9.16363 3.62357,-17.03669 0.0146,-7.04861 1.22871,-8.13861 6.26798,-5.62744 2.95594,1.47301 8.01146,6.25971 11.24712,10.64908 4.53816,6.15628 8.28886,15.4886 9.60376,23.8956 0.87013,5.56332 1.18868,5.81395 2.34168,1.84235 0.54606,-1.88093 1.14028,-4.14179 1.3205,-5.02414 0.75754,-3.70906 3.63846,-2.68881 7.62915,2.70178 3.22799,4.36033 6.96909,11.64798 8.94289,17.42073 1.43195,4.18801 1.58128,5.17862 1.5875,10.53122 0.008,7.05935 -0.70547,10.05848 -4.1689,17.51931 -1.33026,2.86563 -2.41866,5.35822 -2.41866,5.53909 0,0.57267 3.29344,0.35624 6.23397,-0.40967 4.08091,-1.06295 4.95014,-0.94994 6.62781,0.86163 1.27342,1.37506 9.45174,12.15676 40.93956,53.97176 3.18774,4.23324 7.34704,9.69086 9.24289,12.12806 1.89585,2.4372 3.58635,4.96776 3.75667,5.62347 0.6973,2.68457 1.57365,2.36039 -62.61581,23.16255 -15.9772,5.1778 -30.937,10.03656 -33.244,10.79724 l -4.19456,1.38307 z m 9.59604,-5.18347 c 0.19056,-0.7447 0.46148,-19.65564 0.60206,-42.02431 l 0.25559,-40.67031 -4.85285,-1.10076 c -2.66906,-0.60541 -11.34422,-2.77426 -19.27814,-4.81967 l -14.425307,-3.71892 -1.513407,1.42344 c -3.253692,3.06028 -31.339035,40.26838 -43.591091,57.75046 -2.726359,3.89016 -3.460703,5.27594 -3.054904,5.7649 1.24135,1.49573 19.732889,7.92085 59.300829,20.60481 13.26045,4.25079 24.33147,7.80474 24.60227,7.89766 1.19183,0.40898 1.63054,0.1605 1.95495,-1.1073 z m 18.97051,-1.90475 c 15.13227,-4.77945 75.55482,-24.40931 76.17977,-24.749 0.39719,-0.2159 -5.57582,-8.56683 -17.55987,-24.55062 -9.989,-13.3229 -20.1877,-26.98487 -22.66378,-30.35995 -2.47607,-3.37507 -5.376,-6.92615 -6.44427,-7.89127 -1.70732,-1.54245 -2.25491,-1.75458 -4.52582,-1.75321 -1.42092,8.6e-4 -5.5746,0.80205 -9.2304,1.78042 -14.49814,3.88002 -21.38285,5.61143 -24.40762,6.13817 l -3.16474,0.55112 0.001,32.81472 c 7.7e-4,18.04811 0.14711,36.98415 0.3252,42.0801 l 0.32381,9.26536 1.27498,-0.3022 c 0.70124,-0.16621 5.15235,-1.52685 9.89135,-3.02364 z m -11.21297,-87.52267 c 3.85558,-0.90735 5.91224,-2.6194 7.83259,-6.52018 1.93794,-3.93652 2.60282,-9.04894 1.17683,-9.04894 -0.46464,0 -1.47851,0.45123 -2.25303,1.00274 -0.77453,0.55152 -2.09926,1.24365 -2.94385,1.53807 -1.40971,0.49143 -1.67945,0.39912 -3.29012,-1.12584 -2.93019,-2.77428 -6.40106,-8.64498 -7.88232,-13.33234 -0.75233,-2.38068 -1.47864,-4.32612 -1.61404,-4.32321 -0.46189,0.01 -4.86968,7.12458 -6.09615,9.83985 -3.49157,7.72994 -2.44525,14.89032 2.858,19.55842 3.46673,3.05154 6.74301,3.69848 12.21209,2.41143 z m -20.60465,-5.35258 c -0.23771,-1.1509 -0.42929,-4.75131 -0.42572,-8.00091 0.007,-6.5078 0.70873,-8.95607 4.25019,-14.83145 2.79159,-4.63131 10.2061,-12.49473 11.78143,-12.49473 0.9739,0 1.56686,2.44295 1.91436,7.88706 0.28083,4.39959 0.62816,6.32224 1.44807,8.01595 1.11649,2.30637 4.7277,6.74572 5.48733,6.74572 0.2377,0 1.34381,-1.34245 2.45804,-2.98321 1.73163,-2.54995 2.21698,-2.96112 3.3418,-2.83109 1.05442,0.12189 1.60174,0.72404 2.75407,3.02996 1.90408,3.81027 2.3126,9.35934 1.00658,13.67283 -1.10229,3.6406 -0.71283,4.21387 2.18459,3.21562 4.5173,-1.55633 9.26906,-6.3339 12.55881,-12.62702 2.57315,-4.92228 3.24543,-7.82558 3.24152,-13.99864 -0.005,-8.46391 -2.07413,-15.73737 -6.55657,-23.05172 -1.12019,-1.8279 -2.37671,-3.32346 -2.79227,-3.32346 -0.45416,0 -1.39488,1.37219 -2.35815,3.43973 -0.88141,1.89186 -2.37157,4.20874 -3.31146,5.14862 -1.672,1.67201 -5.32942,3.22808 -6.00334,2.55416 -0.18678,-0.18678 -0.51452,-3.49035 -0.72829,-7.34124 -0.69596,-12.5367 -1.44612,-15.99192 -4.72356,-21.75659 -2.94922,-5.18735 -6.38808,-9.49358 -9.89112,-12.38593 l -3.26706,-2.6975 -0.30844,5.07192 c -0.53007,8.71626 -2.34716,13.67573 -8.75258,23.88888 -3.62517,5.78017 -6.18834,10.56326 -7.15152,13.34534 -0.55685,1.60842 -0.59655,1.52646 -1.72652,-3.56437 -0.75009,-3.37937 -1.38328,-5.21066 -1.80165,-5.21066 -1.51212,0 -7.76719,11.37984 -9.81062,17.84845 -1.73139,5.48081 -2.01782,9.6482 -1.00625,14.64048 0.45787,2.25969 1.28846,5.0136 1.84574,6.1198 1.65924,3.29354 5.14294,7.92226 7.57126,10.05975 2.47438,2.17804 6.73866,4.5068 8.25255,4.5068 0.85835,0 0.90889,-0.20382 0.51878,-2.09255 z"
       id="path14" />
    <path
       style="fill:#803300;fill-opacity:1;stroke-width:3.7218"
       d="m 88.769512,145.26059 c -2.351032,-1.0223 -7.311714,-4.49865 -9.740962,-6.82628 -3.932673,-3.76817 -3.5552,-6.22735 2.110688,-13.75079 7.357552,-9.76973 15.204093,-16.23138 25.861022,-21.29663 31.32503,-14.888832 66.49316,-6.151736 87.11955,21.6438 6.60773,8.90439 6.46129,10.50983 -1.49542,16.39409 -8.62796,6.38068 -10.56362,6.08997 -17.16756,-2.57823 -5.26235,-6.90728 -10.84522,-11.4261 -18.5805,-15.03923 -5.07498,-2.37051 -9.19678,-3.42981 -15.00467,-3.8562 -11.33926,-0.83246 -22.27426,1.97402 -31.08984,7.97925 -3.15923,2.15208 -7.62924,6.49169 -10.22987,9.93145 -4.292441,5.67745 -7.137319,8.15214 -9.317136,8.10473 -0.487348,-0.0106 -1.596734,-0.32829 -2.465302,-0.70596 z m 4.134155,-5.30623 c 0.834461,-0.8801 2.889766,-3.26191 4.567344,-5.29291 12.940309,-15.66649 33.107959,-22.74337 51.715169,-18.147 12.017,2.96845 24.09242,11.06237 30.37928,20.36264 1.09835,1.6248 2.48288,3.39058 3.07675,3.92396 1.07797,0.96816 1.08399,0.96755 3.6295,-0.36624 3.12013,-1.63489 6.93507,-4.65103 7.75873,-6.13414 0.53587,-0.96494 0.39704,-1.44321 -1.13569,-3.91228 -3.25287,-5.24005 -13.19365,-15.27131 -18.9501,-19.12259 -6.41903,-4.29456 -15.21869,-7.9249 -23.41251,-9.65894 -6.63303,-1.40373 -18.26927,-1.53406 -24.57677,-0.27528 -13.51005,2.69619 -27.14149,10.06463 -35.862207,19.38523 -2.914528,3.11501 -10.331321,12.74055 -10.329414,13.40555 8.74e-4,0.30448 10.869933,7.41616 11.350029,7.42638 0.149978,0.003 0.955428,-0.71428 1.789889,-1.59438 z"
       id="path15" />
    <path
       style="fill:#803300;fill-opacity:1;stroke-width:3.7218"
       d="m 60.315303,125.52799 c -4.162364,-2.21315 -9.94864,-7.0283 -11.000467,-9.15423 -1.49683,-3.02536 -0.715104,-4.97516 4.917464,-12.26526 16.47841,-21.327625 44.473941,-37.810337 69.32023,-40.813144 5.93156,-0.716861 22.65996,-0.731702 28.37897,-0.02518 15.18277,1.875672 35.34801,10.275903 48.05407,20.01788 11.60959,8.901299 27.00198,26.886724 26.99222,31.539394 -0.004,1.75216 -1.95244,4.00015 -5.98035,6.89857 -6.96968,5.01528 -9.29431,5.8399 -12.21097,4.33163 -0.77215,-0.3993 -3.72738,-3.45695 -6.56719,-6.7948 -13.94892,-16.39526 -27.73803,-25.543283 -45.43173,-30.140493 -5.4868,-1.425592 -20.32221,-2.491853 -27.29591,-1.961831 -7.56349,0.574848 -20.15942,4.134491 -27.25878,7.7034 -9.990939,5.022537 -19.781995,13.218134 -29.428131,24.632804 -2.677505,3.1684 -5.358448,6.10412 -5.957651,6.52382 -1.5826,1.10849 -3.84089,0.9382 -6.531775,-0.49256 z m 4.938966,-4.05364 c 0.550448,-0.46489 2.752875,-2.95011 4.894281,-5.52271 15.858912,-19.052265 34.47882,-29.789285 56.7834,-32.743696 28.39563,-3.761218 57.28942,7.768074 76.22595,30.415926 5.309,6.34949 7.64855,8.72849 8.58376,8.72849 1.12629,0 7.32216,-4.43577 9.22833,-6.60677 1.53388,-1.747 1.55956,-1.8487 0.82513,-3.26893 -0.99847,-1.93082 -6.29926,-8.49054 -11.26688,-13.942759 -10.69992,-11.743683 -26.82863,-22.012283 -42.96262,-27.352836 -8.7293,-2.889509 -15.17047,-3.645932 -31.42707,-3.690666 -12.86622,-0.0354 -13.4733,0.0068 -18.87372,1.311694 -17.770561,4.293915 -32.196138,11.411795 -44.698343,22.055096 -5.316072,4.525646 -17.326583,18.196291 -19.323328,21.994271 -0.494615,0.9408 -0.359729,1.32484 1.015442,2.89107 1.91038,2.1758 8.113423,6.61636 9.210434,6.59345 0.431431,-0.009 1.234786,-0.39674 1.785234,-0.86163 z"
       id="path16" />
    <path
       style="fill:#803300;fill-opacity:1;stroke-width:3.7218"
       d="m 32.418889,106.19056 c -0.969327,-0.49419 -2.733293,-1.67812 -3.919924,-2.63095 -1.186631,-0.95283 -3.189944,-2.42867 -4.451806,-3.27964 -2.595837,-1.750582 -4.352614,-4.248913 -4.352614,-6.189909 0,-1.849633 1.913859,-5.407866 5.489606,-10.206236 3.681523,-4.940312 20.154974,-21.542151 26.021667,-26.224472 16.779108,-13.39173 36.803606,-22.719137 58.098912,-27.062463 9.72556,-1.983596 15.96865,-2.50838 29.54182,-2.483231 17.39376,0.03223 25.4648,1.196736 39.29177,5.669103 18.04156,5.835586 29.31537,11.541198 42.68677,21.603537 14.78762,11.128076 28.06065,25.217941 33.50251,35.564259 1.65209,3.141049 1.70345,3.382189 1.0071,4.728779 -1.58762,3.070113 -9.61172,9.309953 -13.81294,10.741453 -3.47986,1.1857 -4.77827,0.26996 -11.55472,-8.149238 C 222.19815,88.61931 219.80271,86.058005 213.43964,80.59977 200.94707,69.883661 184.88614,61.202792 169.07339,56.619992 157.22128,53.18505 141.61452,51.466556 130.37484,52.358812 103.20549,54.51564 80.819226,64.041237 59.607896,82.470909 55.679148,85.884442 49.200788,93.104201 44.456385,99.356392 c -3.92834,5.176788 -6.895198,7.732698 -8.975971,7.732698 -0.71451,0 -2.092197,-0.40434 -3.061525,-0.89853 z m 5.303488,-5.62529 c 0.814351,-0.880097 3.234489,-3.815815 5.378084,-6.523815 8.35656,-10.556833 23.604265,-24.115535 33.462985,-29.756263 8.392467,-4.801802 22.946982,-10.556944 34.303374,-13.564234 8.4224,-2.230337 17.30567,-2.938341 32.16482,-2.563563 8.30537,0.209478 11.94835,0.5124 15.61793,1.29867 31.52055,6.753794 56.11448,22.043983 75.2502,46.783483 3.16096,4.086622 4.89074,5.925902 5.57311,5.925902 1.41886,0 7.46416,-3.709394 9.71729,-5.962529 1.05341,-1.053407 1.91528,-2.346679 1.91528,-2.873936 0,-3.417294 -20.51028,-25.39935 -31.21558,-33.455545 -16.44598,-12.376304 -36.88942,-21.556071 -57.90223,-25.999988 -3.65443,-0.772859 -6.80724,-0.883387 -24.86437,-0.871671 -20.65729,0.0134 -20.68503,0.0148 -26.09527,1.318183 C 79.296237,41.96445 55.147276,56.185142 34.795964,79.211019 28.917275,85.862285 24.125818,92.34311 24.125818,93.643241 c 0,0.733075 0.908007,1.777684 2.831091,3.257 3.915672,3.012098 7.550071,5.265209 8.493083,5.265209 0.43546,0 1.458034,-0.72008 2.272385,-1.60018 z"
       id="path17" />
  </g>
</svg>
